<svg width="50" height="60" viewBox="0 0 50 60" fill="none" xmlns="http://www.w3.org/2000/svg">
<g filter="url(#filter0_d_141_1633)">
<rect x="10" y="9" width="40" height="40" fill="white"/>
</g>
<path d="M31.31 37.4C29.9877 37.6066 28.6353 37.498 27.363 37.083C26.0906 36.6681 24.9341 35.9586 23.9878 35.0123C23.0414 34.0659 22.3319 32.9095 21.917 31.6371C21.5021 30.3647 21.3935 29.0123 21.6 27.69C21.0788 26.6985 20.8883 25.5663 21.0564 24.4588C21.2246 23.3513 21.7426 22.3267 22.5346 21.5346C23.3267 20.7425 24.3514 20.2246 25.4588 20.0564C26.5663 19.8883 27.6985 20.0787 28.69 20.6C30.0123 20.3935 31.3647 20.5021 32.6371 20.917C33.9095 21.3319 35.0659 22.0414 36.0123 22.9878C36.9586 23.9341 37.6681 25.0905 38.0831 26.3629C38.498 27.6353 38.6066 28.9877 38.4 30.31C38.9213 31.3015 39.1118 32.4337 38.9436 33.5412C38.7755 34.6487 38.2575 35.6733 37.4654 36.4654C36.6734 37.2575 35.6487 37.7754 34.5412 37.9436C33.4337 38.1117 32.3015 37.9213 31.31 37.4V37.4ZM30.052 34.156H30.012C32.884 34.156 34.315 32.77 34.315 30.913C34.315 29.715 33.764 28.442 31.589 27.955L29.606 27.515C28.851 27.343 27.984 27.115 27.984 26.4C27.984 25.685 28.604 25.187 29.708 25.187C31.938 25.187 31.735 26.715 32.839 26.715C33.415 26.715 33.932 26.373 33.932 25.785C33.932 24.415 31.735 23.385 29.876 23.385C27.855 23.385 25.703 24.244 25.703 26.529C25.703 27.627 26.097 28.799 28.263 29.342L30.952 30.013C31.768 30.215 31.97 30.672 31.97 31.085C31.97 31.772 31.286 32.443 30.052 32.443C27.635 32.443 27.974 30.586 26.678 30.586C26.098 30.586 25.675 30.984 25.675 31.557C25.675 32.671 27.027 34.155 30.052 34.155V34.156Z" fill="#FF5300"/>
<defs>
<filter id="filter0_d_141_1633" x="0" y="0" width="60" height="60" filterUnits="userSpaceOnUse" color-interpolation-filters="sRGB">
<feFlood flood-opacity="0" result="BackgroundImageFix"/>
<feColorMatrix in="SourceAlpha" type="matrix" values="0 0 0 0 0 0 0 0 0 0 0 0 0 0 0 0 0 0 127 0" result="hardAlpha"/>
<feOffset dy="1"/>
<feGaussianBlur stdDeviation="5"/>
<feColorMatrix type="matrix" values="0 0 0 0 0 0 0 0 0 0 0 0 0 0 0 0 0 0 0.1 0"/>
<feBlend mode="normal" in2="BackgroundImageFix" result="effect1_dropShadow_141_1633"/>
<feBlend mode="normal" in="SourceGraphic" in2="effect1_dropShadow_141_1633" result="shape"/>
</filter>
</defs>
</svg>
