<svg width="50" height="60" viewBox="0 0 50 60" fill="none" xmlns="http://www.w3.org/2000/svg">
<g filter="url(#filter0_d_141_1632)">
<rect x="10" y="9" width="40" height="40" fill="white"/>
</g>
<path d="M40.1621 22.656C39.3986 22.9937 38.589 23.2155 37.7601 23.314C38.6338 22.7914 39.2878 21.969 39.6001 21C38.7801 21.488 37.8811 21.83 36.9441 22.015C36.3147 21.3416 35.4804 20.895 34.571 20.7446C33.6616 20.5942 32.728 20.7485 31.9153 21.1834C31.1026 21.6184 30.4564 22.3097 30.0772 23.1498C29.6979 23.9899 29.6068 24.9318 29.8181 25.829C28.1552 25.7456 26.5284 25.3135 25.0433 24.5607C23.5583 23.8078 22.2482 22.751 21.1981 21.459C20.8263 22.0974 20.631 22.8232 20.6321 23.562C20.6321 25.012 21.3701 26.293 22.4921 27.043C21.8281 27.0221 21.1787 26.8428 20.5981 26.52V26.572C20.5983 27.5377 20.9324 28.4736 21.5439 29.221C22.1554 29.9685 23.0065 30.4815 23.9531 30.673C23.3367 30.84 22.6904 30.8646 22.0631 30.745C22.3299 31.5762 22.8501 32.3032 23.5506 32.8241C24.2512 33.345 25.0972 33.6338 25.9701 33.65C25.1025 34.3313 24.1092 34.835 23.0469 35.1322C21.9846 35.4293 20.8742 35.5142 19.7791 35.382C21.6908 36.6114 23.9161 37.2641 26.1891 37.262C33.8821 37.262 38.0891 30.889 38.0891 25.362C38.0891 25.182 38.0841 25 38.0761 24.822C38.8949 24.2302 39.6017 23.497 40.1631 22.657L40.1621 22.656Z" fill="#FF5300"/>
<defs>
<filter id="filter0_d_141_1632" x="0" y="0" width="60" height="60" filterUnits="userSpaceOnUse" color-interpolation-filters="sRGB">
<feFlood flood-opacity="0" result="BackgroundImageFix"/>
<feColorMatrix in="SourceAlpha" type="matrix" values="0 0 0 0 0 0 0 0 0 0 0 0 0 0 0 0 0 0 127 0" result="hardAlpha"/>
<feOffset dy="1"/>
<feGaussianBlur stdDeviation="5"/>
<feColorMatrix type="matrix" values="0 0 0 0 0 0 0 0 0 0 0 0 0 0 0 0 0 0 0.1 0"/>
<feBlend mode="normal" in2="BackgroundImageFix" result="effect1_dropShadow_141_1632"/>
<feBlend mode="normal" in="SourceGraphic" in2="effect1_dropShadow_141_1632" result="shape"/>
</filter>
</defs>
</svg>
